<svg width="1152" height="843" viewBox="0 0 1152 843" fill="none" xmlns="http://www.w3.org/2000/svg">
<g id="undraw_sunlight_tn7t 1" clip-path="url(#clip0)">
<g id="plant">
<path id="Vector" d="M403.925 712.834C403.812 712.649 401.142 708.19 400.216 698.931C399.367 690.437 399.913 676.119 407.338 656.147C421.405 618.311 404.096 587.783 403.92 587.479L404.774 586.984C408.106 593.362 410.514 600.182 411.923 607.238C415.41 623.67 414.14 640.755 408.264 656.491C394.221 694.263 404.661 712.143 404.768 712.32L403.925 712.834Z" fill="#3F3D56"/>
<path id="Vector_2" d="M399.425 590.258C402.968 590.258 405.84 587.385 405.84 583.842C405.84 580.299 402.968 577.427 399.425 577.427C395.882 577.427 393.009 580.299 393.009 583.842C393.009 587.385 395.882 590.258 399.425 590.258Z" fill="#766CEA"/>
<path id="Vector_3" d="M418.658 606.945C422.201 606.945 425.073 604.073 425.073 600.529C425.073 596.986 422.201 594.114 418.658 594.114C415.114 594.114 412.242 596.986 412.242 600.529C412.242 604.073 415.114 606.945 418.658 606.945Z" fill="#8880E4"/>
<path id="Vector_4" d="M404.84 624.736C408.383 624.736 411.255 621.864 411.255 618.321C411.255 614.778 408.383 611.906 404.84 611.906C401.297 611.906 398.425 614.778 398.425 618.321C398.425 621.864 401.297 624.736 404.84 624.736Z" fill="#B01919"/>
<path id="Vector_5" d="M421.618 638.06C425.162 638.06 428.034 635.188 428.034 631.645C428.034 628.102 425.162 625.23 421.618 625.23C418.075 625.23 415.203 628.102 415.203 631.645C415.203 635.188 418.075 638.06 421.618 638.06Z" fill="#B01919"/>
<path id="Vector_6" d="M399.905 658.787C403.448 658.787 406.32 655.914 406.32 652.371C406.32 648.828 403.448 645.956 399.905 645.956C396.362 645.956 393.49 648.828 393.49 652.371C393.49 655.914 396.362 658.787 399.905 658.787Z" fill="#8B83E6"/>
<path id="Vector_7" d="M407.801 713.07C407.801 713.07 401.386 697.278 420.631 685.435L407.801 713.07Z" fill="#6ECB43"/>
<path id="Vector_8" d="M399.911 712.783C399.911 712.783 396.991 695.99 374.394 696.134L399.911 712.783Z" fill="#4C9629"/>
</g>
<g id="girl">
<path id="Vector_9" d="M1056.12 280.199C1034.1 280.199 1016.24 300.011 1016.24 324.45V355.5H1025.79L1031.32 343.996L1029.94 355.5H1091.32L1096.35 345.042L1095.09 355.5H1102V331.12C1102 302.997 1081.46 280.199 1056.12 280.199Z" fill="#2F2E41"/>
<path id="Vector_10" d="M1018.66 423.756L1012.04 449.143L1073.85 446.935L1072.75 425.963C1072.75 425.963 1026.39 413.822 1018.66 423.756Z" fill="#FFB9B9"/>
<path id="Vector_11" d="M959.06 525.305L978.928 569.456L997.693 546.277L982.24 515.371L959.06 525.305Z" fill="#FFB9B9"/>
<path id="Vector_12" d="M1008.73 687.562L1010.94 738.337H1035.22L1031.91 687.562H1008.73Z" fill="#FFB9B9"/>
<path id="Vector_13" d="M980.032 478.945L991.07 515.371L1007.63 691.977C1007.63 691.977 1023.08 696.393 1034.12 690.874L1036.33 666.59L1040.74 527.512C1040.74 527.512 1061.71 516.474 1059.51 501.021C1057.3 485.568 1051.78 464.596 1051.78 464.596L980.032 478.945Z" fill="#2F2E41"/>
<path id="Vector_14" d="M1014.25 726.195H1007.63C1007.63 726.195 988.862 746.063 982.24 748.271C975.617 750.478 941.399 769.243 968.994 772.554C996.589 775.866 1014.25 761.516 1014.25 761.516C1014.25 761.516 1023.08 767.035 1035.22 762.62C1047.36 758.205 1040.74 744.959 1040.74 744.959C1040.74 744.959 1034.58 724.772 1034.35 724.932C1034.12 725.091 1027.5 735.025 1014.25 726.195Z" fill="#2B267A"/>
<path id="Vector_15" d="M1048.47 348.698C1062.49 348.698 1073.85 337.332 1073.85 323.311C1073.85 309.29 1062.49 297.923 1048.47 297.923C1034.45 297.923 1023.08 309.29 1023.08 323.311C1023.08 337.332 1034.45 348.698 1048.47 348.698Z" fill="#FFB9B9"/>
<path id="Vector_16" d="M1086 356.424L1074.32 366.16L1072.75 367.462L1071.65 380.708H1028.6C1028.6 380.708 1034.47 375.619 1039.92 370.354C1040.03 370.233 1040.16 370.1 1040.29 369.979C1041.03 369.261 1041.69 368.599 1042.29 368.003C1042.61 367.672 1042.92 367.363 1043.19 367.076C1043.64 366.601 1044.09 366.149 1044.53 365.696C1044.53 365.69 1044.54 365.682 1044.54 365.674C1045.67 364.492 1046.73 363.246 1047.72 361.943L1047.73 361.932C1047.99 361.581 1048.24 361.216 1048.47 360.84C1051.78 355.321 1044.05 344.283 1044.05 344.283L1068.34 332.141C1069.19 344.106 1079.31 352.097 1083.83 355.1C1085.16 355.972 1086 356.424 1086 356.424Z" fill="#FFB9B9"/>
<path id="Vector_17" d="M1145.6 541.862C1129.04 546.277 1127.94 513.163 1127.94 513.163L1105.34 467.968C1100.57 458.418 1097.28 448.192 1095.61 437.648L1090.41 404.991L1088.83 406.879V406.89L1086 408.303L1068.76 380.708L1063.92 372.981V364.151L1080.48 356.424H1087.1C1087.1 356.424 1087.24 356.402 1087.5 356.38C1090.54 356.06 1110.37 354.735 1111.38 374.085C1111.78 381.679 1111.75 387.971 1111.54 392.907C1110.91 406.565 1112.21 420.243 1115.39 433.539C1116.56 438.333 1117.84 442.497 1119.11 444.728C1123.53 452.454 1138.98 513.163 1138.98 513.163C1138.98 513.163 1162.16 537.446 1145.6 541.862Z" fill="#FFB9B9"/>
<path id="Vector_18" d="M1044.05 368.566L1039.87 376.193L1037.4 380.708L1025.29 402.784C1025.29 402.784 1021.85 405.587 1016.29 409.208C1007.04 415.223 991.876 423.48 976.721 424.859C952.437 427.067 975.617 348.698 975.617 348.698C975.617 348.698 983.344 317.792 994.381 321.103C1005.42 324.414 996.589 335.452 988.863 356.424C981.136 377.396 987.759 400.576 987.759 400.576C987.759 400.576 1010.94 386.227 1023.08 375.189C1029.4 369.438 1034.84 367.882 1038.58 367.716H1038.59C1039.83 367.648 1041.07 367.744 1042.29 368.003C1042.89 368.125 1043.49 368.313 1044.05 368.566Z" fill="#FFB9B9"/>
<path id="Vector_19" d="M1047.72 361.943C1047.67 362.065 1047.15 363.047 1043.19 367.076C1044.81 365.464 1046.32 363.749 1047.72 361.943Z" fill="#D0CDE1"/>
<path id="Vector_20" d="M1089.86 405.543L1088.83 406.89L1072.75 434.794C1072.75 434.794 1051.78 427.067 1036.33 424.859C1032.08 424.127 1027.71 424.678 1023.78 426.441C1019.85 428.205 1016.54 431.102 1014.26 434.76L1018.66 417.133L1016.29 409.208C1016.02 408.281 1015.7 407.254 1015.35 406.095C1012.04 395.057 1024.18 382.915 1024.18 382.915L1038.58 367.716H1038.59C1039.83 367.648 1041.07 367.745 1042.29 368.003C1041.69 368.599 1041.03 369.261 1040.29 369.979C1040.16 370.1 1040.03 370.233 1039.92 370.354C1035.7 374.67 1037.89 375.873 1039.87 376.193C1040.52 376.293 1041.18 376.327 1041.84 376.293C1046.45 376.955 1056.52 372.915 1063.92 369.537C1068.95 367.241 1072.75 365.255 1072.75 365.255L1082.39 356.424L1083.83 355.1C1085.16 355.972 1086 356.424 1086 356.424H1087.1C1087.1 356.424 1087.24 356.402 1087.5 356.38L1082.47 360.11C1079.97 361.966 1077.97 364.42 1076.66 367.246C1075.35 370.073 1074.76 373.183 1074.96 376.293L1089.86 405.543Z" fill="#D0CDE1"/>
<path id="Vector_21" d="M1029.7 437.001L1013.57 443.303C1013.57 443.303 925.946 409.406 912.701 437.001C899.455 464.596 959.06 530.824 959.06 530.824L985.551 518.682L974.513 485.568C974.513 485.568 1038.53 539.654 1065.02 509.852C1091.52 480.049 1073.85 437.909 1073.85 437.909C1073.85 437.909 1057.3 424.859 1029.7 437.001Z" fill="#2F2E41"/>
<path id="Vector_22" d="M983.344 557.315L973.409 565.041C973.409 565.041 982.24 600.363 978.928 605.882C975.617 611.4 968.994 626.854 981.136 625.75C993.278 624.646 1006.52 605.882 1007.63 599.259C1008.73 592.636 1016.46 572.768 1016.46 572.768C1016.46 572.768 1029.7 541.862 1019.77 540.758C1009.83 539.654 994.012 538.915 994.012 538.915L983.344 557.315Z" fill="#2B267A"/>
<path id="Vector_23" d="M1067.45 292.389C1065.53 289.812 1063.05 287.712 1060.19 286.252C1057.32 284.792 1054.16 284.011 1050.95 283.969H1050.17C1035.08 283.969 1022.84 297.627 1022.84 314.475V314.475H1027.9L1028.71 308.258L1029.91 314.475H1059.91L1062.42 309.215L1061.79 314.475H1067.69C1070.45 328.15 1066.49 341.825 1055.82 355.5H1065.88L1070.9 344.981L1069.65 355.5H1088.81L1092.58 331.306C1092.58 313.186 1082.05 297.821 1067.45 292.389Z" fill="#2F2E41"/>
</g>
<path id="sun" d="M971.034 204.591C1021.29 204.591 1062.03 163.849 1062.03 113.591C1062.03 63.3328 1021.29 22.5907 971.034 22.5907C920.776 22.5907 880.034 63.3328 880.034 113.591C880.034 163.849 920.776 204.591 971.034 204.591Z" fill="#ECC272"/>
<g id="trees">
<path id="Vector_24" d="M747.077 538.153C745.396 551.544 744.018 564.434 742.889 576.724H779.448C780.779 563.804 782.448 550.946 784.454 538.153H747.077Z" fill="#A77F6E"/>
<path id="Vector_25" d="M776.979 674.332C776.194 661.539 775.877 648.682 776.028 635.761H738.966C738.364 650.54 738.128 663.512 738.085 674.332H776.979Z" fill="#A77F6E"/>
<path id="Vector_26" d="M840.196 332.704C870.673 251.509 900.532 196.918 900.532 196.918L869.439 178.42C837.063 227.24 812.594 280.012 794.117 332.704H840.196Z" fill="#A77F6E"/>
<path id="Vector_27" d="M741.994 586.957C740.852 600.708 740.022 613.621 739.429 625.528H776.221C776.576 612.671 777.326 599.814 778.473 586.957H741.994Z" fill="#A77F6E"/>
<path id="Vector_28" d="M754.283 489.349C752.036 502.545 750.09 515.43 748.408 527.92H786.113C788.303 514.93 790.773 502.073 793.525 489.349H754.283Z" fill="#A77F6E"/>
<path id="Vector_29" d="M790.605 342.937C786.269 355.834 782.275 368.691 778.624 381.508H823.014C827.403 368.154 831.897 355.267 836.406 342.937H790.605Z" fill="#A77F6E"/>
<path id="Vector_30" d="M763.763 440.545C760.899 453.617 758.337 466.474 756.076 479.116H795.786C798.751 466.042 801.94 453.185 805.354 440.545H763.763Z" fill="#A77F6E"/>
<path id="Vector_31" d="M738.1 684.565C738.221 701.187 738.77 710.542 738.77 710.542L738.377 718.02H781.671C779.938 706.964 778.617 695.812 777.707 684.565H738.1Z" fill="#A77F6E"/>
<path id="Vector_32" d="M775.76 391.741C772.209 404.718 768.976 417.575 766.061 430.312H808.161C811.848 417.126 815.695 404.269 819.703 391.741H775.76Z" fill="#A77F6E"/>
<path id="Vector_33" d="M1086.03 232.286C1070.62 200.074 1055.12 176.048 1040.01 158.343L1032.12 170.466L1032.79 150.329C1027.61 144.845 1022.05 139.739 1016.14 135.05L1005.35 151.617L1006.14 127.927C999.727 123.778 992.854 120.385 985.66 117.814L977.685 130.067L978.168 115.557C950.654 108.652 928.045 118.111 914.947 126.186L907.081 125.013L920.572 119.379C919.341 111.839 917.244 104.466 914.32 97.4078L890.877 93.9103L909.117 86.293C905.571 79.634 901.553 73.2372 897.094 67.1515L877.166 64.1785L890.514 58.6045C875.826 40.5485 854.99 20.9681 826.087 -3.05176e-05C826.087 -3.05176e-05 823.949 18.6765 822.758 44.7167L842.333 64.7417L822.222 59.5405C822.011 67.5381 821.921 75.9581 822.02 84.5487L836.457 99.3166L822.256 95.644C822.463 102.213 822.797 108.815 823.284 115.344C810.991 112.373 798.158 112.446 785.899 115.557L786.383 130.067L778.408 117.814C771.213 120.385 764.34 123.778 757.925 127.927L758.714 151.617L747.931 135.05C742.021 139.739 736.454 144.845 731.273 150.329L731.944 170.466L724.053 158.343C708.944 176.048 693.443 200.074 678.034 232.286C678.034 232.286 696.79 231.02 722.617 227.493L738.782 204.627L737.295 225.346C745.199 224.11 753.497 222.68 761.929 221.032L773.85 204.169L772.8 218.799C784.56 216.257 796.355 213.279 807.497 209.81L815.498 217.252L801.186 214.268C797.936 221.182 795.496 228.448 793.914 235.923L811.269 252.067L791.919 248.032C791.076 255.529 790.772 263.077 791.007 270.617L805.759 284.341L791.599 281.388C793.5 304.586 799.607 332.518 811.583 366.158C811.583 366.158 823.91 351.965 839.621 331.164L834.804 303.579L848.447 319.243C853.144 312.766 857.981 305.874 862.758 298.733L859.206 278.389L868.84 289.45C878.514 274.346 887.562 258.502 894.226 243.412C902.841 254.651 912.068 265.407 921.868 275.63L929.248 262.954L929.587 283.603C935.623 289.717 941.67 295.576 947.502 301.053L957.954 283.102L958.414 311.101C977.758 328.574 992.536 340.194 992.536 340.194C997.968 304.901 998.71 276.319 996.211 253.177L982.86 258.742L994.766 242.488C993.578 235.038 991.859 227.682 989.621 220.477L971.375 228.082L980.051 216.237C983.779 217.136 987.518 217.99 991.268 218.799L990.218 204.169L1002.14 221.032C1010.57 222.68 1018.87 224.11 1026.77 225.346L1025.29 204.627L1041.45 227.493C1067.28 231.02 1086.03 232.286 1086.03 232.286Z" fill="#26894D"/>
<path id="Vector_34" d="M682.298 514.464C683.484 523.916 684.457 533.015 685.254 541.691H659.447C658.508 532.57 657.33 523.495 655.914 514.464H682.298Z" fill="#A77F6E"/>
<path id="Vector_35" d="M661.19 610.59C661.744 601.56 661.968 592.484 661.862 583.364H688.023C688.448 593.796 688.614 602.953 688.645 610.59H661.19Z" fill="#A77F6E"/>
<path id="Vector_36" d="M616.566 369.441C595.053 312.127 573.976 273.592 573.976 273.592L595.924 260.534C618.778 294.996 636.05 332.247 649.092 369.441H616.566Z" fill="#A77F6E"/>
<path id="Vector_37" d="M685.885 548.914C686.692 558.621 687.278 567.736 687.696 576.141H661.725C661.475 567.065 660.945 557.99 660.136 548.914H685.885Z" fill="#A77F6E"/>
<path id="Vector_38" d="M677.211 480.014C678.797 489.329 680.171 498.424 681.358 507.241H654.742C653.197 498.071 651.453 488.996 649.511 480.014H677.211Z" fill="#A77F6E"/>
<path id="Vector_39" d="M651.572 376.664C654.633 385.768 657.452 394.844 660.029 403.891H628.694C625.597 394.464 622.424 385.368 619.241 376.664H651.572Z" fill="#A77F6E"/>
<path id="Vector_40" d="M670.519 445.564C672.54 454.791 674.349 463.867 675.945 472.791H647.915C645.822 463.562 643.57 454.486 641.161 445.564H670.519Z" fill="#A77F6E"/>
<path id="Vector_41" d="M688.634 617.814C688.549 629.547 688.161 636.15 688.161 636.15L688.439 641.429H657.878C659.101 633.625 660.034 625.753 660.676 617.814H688.634Z" fill="#A77F6E"/>
<path id="Vector_42" d="M662.05 411.114C664.557 420.274 666.839 429.35 668.897 438.341H639.179C636.577 429.033 633.861 419.958 631.032 411.114H662.05Z" fill="#A77F6E"/>
<path id="Vector_43" d="M443.034 298.558C453.911 275.82 464.852 258.86 475.518 246.363L481.088 254.92L480.614 240.705C484.272 236.835 488.201 233.23 492.373 229.92L499.985 241.615L499.427 224.892C503.956 221.964 508.807 219.568 513.886 217.754L519.515 226.403L519.174 216.161C538.596 211.287 554.555 217.963 563.8 223.664L569.353 222.835L559.83 218.859C560.699 213.536 562.18 208.332 564.243 203.349L580.792 200.88L567.916 195.504C570.419 190.803 573.255 186.288 576.403 181.992L590.47 179.893L581.048 175.959C591.416 163.213 606.123 149.392 626.525 134.591C626.525 134.591 628.035 147.774 628.875 166.156L615.058 180.291L629.254 176.619C629.402 182.265 629.466 188.208 629.396 194.272L619.206 204.697L629.23 202.104C629.084 206.741 628.848 211.402 628.504 216.01C637.182 213.913 646.24 213.965 654.893 216.161L654.552 226.403L660.181 217.754C665.26 219.568 670.112 221.964 674.64 224.892L674.083 241.615L681.694 229.92C685.866 233.23 689.796 236.835 693.453 240.705L692.98 254.92L698.549 246.363C709.215 258.86 720.156 275.82 731.034 298.558C731.034 298.558 717.794 297.664 699.563 295.174L688.152 279.033L689.202 293.659C683.623 292.786 677.765 291.777 671.814 290.614L663.399 278.71L664.14 289.037C655.839 287.243 647.512 285.141 639.648 282.692L634 287.945L644.102 285.839C646.397 290.719 648.119 295.849 649.236 301.125L636.985 312.521L650.645 309.672C651.239 314.964 651.454 320.292 651.288 325.615L640.875 335.302L650.87 333.218C649.529 349.593 645.217 369.31 636.764 393.056C636.764 393.056 628.062 383.037 616.972 368.354L620.372 348.882L610.742 359.939C607.426 355.367 604.012 350.502 600.64 345.462L603.147 331.101L596.347 338.909C589.569 328.54 583.579 317.677 578.427 306.411C572.347 314.345 565.833 321.937 558.916 329.153L553.706 320.206L553.466 334.781C549.206 339.097 544.937 343.233 540.821 347.099L533.443 334.427L533.118 354.192C519.463 366.526 509.032 374.728 509.032 374.728C505.198 349.815 504.674 329.64 506.438 313.305L515.862 317.233L507.458 305.759C508.296 300.5 509.51 295.308 511.09 290.222L523.969 295.59L517.845 287.229C515.213 287.864 512.574 288.466 509.927 289.037L510.669 278.71L502.254 290.614C496.302 291.777 490.444 292.786 484.865 293.659L485.915 279.033L474.504 295.174C456.273 297.664 443.034 298.558 443.034 298.558Z" fill="#69B97A"/>
</g>
<g id="ground">
<path id="Vector_44" d="M634.5 662C697.184 662 748 656.627 748 650C748 643.373 697.184 638 634.5 638C571.816 638 521 643.373 521 650C521 656.627 571.816 662 634.5 662Z" fill="#5B5517"/>
<path id="Vector_45" d="M720.5 741C801.962 741 868 734.732 868 727C868 719.268 801.962 713 720.5 713C639.038 713 573 719.268 573 727C573 734.732 639.038 741 720.5 741Z" fill="#5B5517"/>
<path id="Vector_46" d="M379.534 734.591C460.996 734.591 527.034 728.323 527.034 720.591C527.034 712.859 460.996 706.591 379.534 706.591C298.072 706.591 232.034 712.859 232.034 720.591C232.034 728.323 298.072 734.591 379.534 734.591Z" fill="#5B5517"/>
</g>
<g id="specs">
<path id="Vector_47" d="M846.534 578.091C846.534 578.091 857.184 652.041 806.054 695.761C772.964 724.051 725.784 728.681 687.064 708.771C672.684 701.381 657.344 690.151 642.694 673.201C637.162 666.78 632.065 659.998 627.434 652.901C620.71 642.577 614.783 631.755 609.704 620.531C606.504 613.541 603.447 606.061 600.534 598.091C599.974 596.561 599.454 595.061 598.954 593.571C572.404 514.661 624.044 491.641 671.444 486.121C681.39 485.002 691.395 484.498 701.404 484.611C713.155 484.668 724.891 485.497 736.534 487.091C736.534 487.091 737.504 487.101 739.254 487.171C748.285 487.589 757.28 488.588 766.184 490.161C802.804 496.591 858.854 516.511 846.534 578.091Z" fill="url(#paint0_linear)"/>
<path id="Vector_48" d="M520.534 598.091C497.194 662.161 463.584 693.561 434.004 708.771C395.284 728.681 348.104 724.051 315.014 695.761C311.844 693.053 308.838 690.158 306.014 687.091C300.217 680.817 295.179 673.882 291.004 666.431C285.721 656.951 281.658 646.84 278.914 636.341C275.897 624.824 274.164 613.009 273.744 601.111C273.379 593.429 273.643 585.73 274.534 578.091C263.004 520.441 311.384 499.311 347.654 491.571C358.142 489.35 368.782 487.916 379.484 487.281C382.694 487.101 384.534 487.091 384.534 487.091C403.612 484.515 422.907 483.942 442.104 485.381C492.194 489.421 552.184 511.221 520.534 598.091Z" fill="url(#paint1_linear)"/>
<path id="Vector_49" opacity="0.2" d="M379.484 487.281L278.914 636.341C275.897 624.824 274.164 613.009 273.744 601.111L347.654 491.571C358.142 489.35 368.782 487.916 379.484 487.281Z" fill="white"/>
<path id="Vector_50" opacity="0.2" d="M442.104 485.381L306.014 687.091C300.217 680.817 295.179 673.882 291.004 666.431L413.604 484.721C423.109 484.424 432.623 484.645 442.104 485.381Z" fill="white"/>
<path id="Vector_51" opacity="0.2" d="M701.404 484.611L609.704 620.531C606.504 613.541 603.447 606.061 600.534 598.091C599.974 596.561 599.454 595.061 598.954 593.571L671.444 486.121C681.39 485.002 691.396 484.498 701.404 484.611Z" fill="white"/>
<path id="Vector_52" opacity="0.2" d="M766.184 490.161L642.694 673.201C637.163 666.78 632.065 659.998 627.434 652.901L739.254 487.171C748.285 487.589 757.28 488.588 766.184 490.161Z" fill="white"/>
<path id="Vector_53" d="M870.534 571.091H847.646C857.776 488.051 736.534 487.091 736.534 487.091C717.313 484.501 697.872 483.941 678.534 485.419V485.091H441.534V485.339C422.524 483.959 403.423 484.546 384.534 487.091C384.534 487.091 263.292 488.051 273.421 571.091H251.534V593.091H273.621C273.399 616.992 278.143 664.234 315.014 695.761C348.104 724.051 395.284 728.681 434.004 708.771C463.584 693.561 497.194 662.161 520.534 598.091C528.53 576.141 530.673 558.347 528.607 543.943C549.878 542.872 571.19 542.872 592.461 543.943C590.394 558.347 592.538 576.141 600.534 598.091C623.874 662.161 657.484 693.561 687.064 708.771C725.784 728.681 772.964 724.051 806.054 695.761C842.924 664.234 847.668 616.992 847.447 593.091H870.534V571.091ZM509.994 598.501C487.784 659.471 455.384 687.991 427.594 701.151C393.784 717.161 353.494 712.711 324.474 689.121C289.394 660.601 284.724 616.771 284.854 594.431C284.914 585.551 284.514 576.691 284.164 567.821C281.394 498.111 385.994 497.291 385.994 497.291C385.994 497.291 556.504 470.851 509.994 598.501ZM593.383 538.935C571.516 537.238 549.551 537.238 527.684 538.935C522.198 514.449 503.707 500.648 481.747 493.091H639.32C617.36 500.648 598.869 514.449 593.383 538.935H593.383ZM837.984 567.501C837.624 576.451 837.224 585.401 837.284 594.351C837.424 616.901 832.704 661.141 797.304 689.911C768.024 713.721 727.384 718.221 693.274 702.081C665.214 688.811 632.494 660.031 610.064 598.461C563.134 469.631 735.214 496.321 735.214 496.321C735.214 496.321 840.774 497.141 837.984 567.501Z" fill="#3F3D56"/>
</g>
<g id="cloud">
<path id="Vector_54" d="M338.854 341.231C338.841 342.264 338.577 343.278 338.084 344.186C337.59 345.094 336.883 345.868 336.024 346.441L335.784 346.591H228.984L229.414 345.281C229.484 345.051 237.304 322.361 271.914 326.741C275.174 325.621 307.034 315.221 326.104 326.911C334.564 332.091 338.854 336.911 338.854 341.231Z" fill="#F1F1F1"/>
<path id="Vector_55" d="M536.854 418.231C536.841 419.264 536.577 420.278 536.083 421.186C535.59 422.094 534.883 422.868 534.024 423.441L533.784 423.591H426.984L427.414 422.281C427.484 422.051 435.304 399.361 469.914 403.741C473.174 402.621 505.034 392.221 524.104 403.911C532.564 409.091 536.854 413.911 536.854 418.231Z" fill="#F1F1F1"/>
<path id="Vector_56" d="M581.854 108.231C581.841 109.264 581.577 110.278 581.083 111.186C580.59 112.094 579.883 112.868 579.024 113.441L578.784 113.591H471.984L472.414 112.281C472.484 112.051 480.304 89.3607 514.914 93.7407C518.174 92.6207 550.034 82.2207 569.104 93.9107C577.564 99.0907 581.854 103.911 581.854 108.231Z" fill="#F1F1F1"/>
</g>
<g id="men">
<path id="Vector_57" d="M28.9593 574.004L38.0964 602.286C38.0964 602.286 29.8295 628.827 33.7454 658.414C37.6613 688.001 35.4858 688.871 35.4858 688.871C35.4858 688.871 -3.64043 686.619 0.275485 698.367C4.19139 710.114 42.4475 703.23 42.4475 703.23C42.4475 703.23 49.7947 701.251 53.2755 680.367C56.7563 659.482 65.5078 619.255 65.5078 619.255L57.2785 581.28L28.9593 574.004Z" fill="#FFB8B8"/>
<path id="Vector_58" d="M32.005 566.136C32.005 566.136 15.4711 572.227 15.4711 588.761C15.4711 605.295 21.5626 627.92 25.4785 629.226C29.3944 630.531 55.5005 648.37 60.2866 635.752C65.0727 623.134 32.005 566.136 32.005 566.136Z" fill="#D0CDE1"/>
<path id="Vector_59" d="M170.367 761.932L205.175 760.626L231.717 756.71L223.885 782.816L159.49 784.557L170.367 761.932Z" fill="#FFB8B8"/>
<path id="Vector_60" d="M220.404 765.412C220.404 765.412 219.969 755.84 216.053 756.275C212.137 756.71 214.748 752.794 218.228 751.924C221.709 751.054 231.717 746.703 231.717 746.703L271.311 749.314C271.311 749.314 296.982 771.939 286.539 784.122C276.097 796.305 249.121 785.427 249.121 785.427L219.969 785.862C219.969 785.862 210.397 770.199 220.404 765.412Z" fill="#7A30A8"/>
<path id="Vector_61" d="M236.068 731.91L248.685 791.083L274.792 785.862L259.998 711.895L244.334 703.628L236.068 731.91Z" fill="#FFB8B8"/>
<path id="Vector_62" d="M85.9576 724.513C85.9576 724.513 12.8606 757.581 43.7527 791.083C43.7527 791.083 43.7527 806.747 76.3853 803.701C109.018 800.656 172.108 794.999 175.153 796.74C178.199 798.48 187.771 762.367 179.504 760.626C171.237 758.886 161.23 756.71 161.23 756.71C161.23 756.71 169.932 755.405 169.932 748.008C169.932 748.008 194.733 746.268 202.13 730.604C209.526 714.941 216.488 703.193 216.488 703.193L233.457 746.703C233.457 746.703 253.037 710.59 267.83 726.688C267.83 726.688 251.296 622.699 238.678 613.127C226.06 603.555 217.358 600.509 205.61 609.211C193.863 617.913 182.985 640.103 182.985 640.103L85.9576 724.513Z" fill="#2F2E41"/>
<path id="Vector_63" d="M260.433 773.244C257.391 775.539 254.486 778.008 251.731 780.641C248.25 784.122 243.464 782.381 243.029 780.641C242.594 778.901 234.762 781.946 233.892 794.564C233.022 807.182 227.801 818.495 241.724 822.411C255.647 826.327 255.212 837.639 255.212 837.639C266.229 842.924 278.872 843.705 290.455 839.815C310.035 833.288 303.073 826.327 303.073 826.327L276.967 783.252C276.967 783.252 270.005 770.198 260.433 773.244Z" fill="#7A30A8"/>
<path id="Vector_64" d="M188.206 557.434C188.206 557.434 229.976 571.792 234.327 574.838C238.678 577.884 258.258 592.242 248.685 599.639C239.113 607.036 231.281 611.822 212.572 606.165C193.863 600.509 172.978 583.105 172.978 583.105L188.206 557.434Z" fill="#FFB8B8"/>
<path id="Vector_65" d="M146.437 538.289C146.437 538.289 162.971 535.244 174.718 541.77C186.466 548.297 196.473 561.35 196.473 561.35C196.473 561.35 185.596 584.41 177.764 587.891C169.932 591.372 155.574 573.968 155.574 573.968L146.437 538.289Z" fill="#D0CDE1"/>
<path id="Vector_66" d="M70.2939 525.672C70.2939 525.672 70.729 542.641 68.9886 544.381C67.2482 546.121 89.8735 597.463 114.674 574.838C139.475 552.213 120.331 543.076 120.331 543.076C120.331 543.076 111.193 526.107 111.629 524.366C112.064 522.626 71.1641 524.366 71.1641 524.366L70.2939 525.672Z" fill="#FFB8B8"/>
<path id="Vector_67" opacity="0.1" d="M70.2939 525.672C70.2939 525.672 70.729 542.641 68.9886 544.381C67.2482 546.121 89.8735 597.463 114.674 574.838C139.475 552.213 120.331 543.076 120.331 543.076C120.331 543.076 111.193 526.107 111.629 524.366C112.064 522.626 71.1641 524.366 71.1641 524.366L70.2939 525.672Z" fill="black"/>
<path id="Vector_68" d="M77.2555 558.304C77.2555 558.304 93.7894 569.617 100.751 567.006C107.713 564.396 116.415 553.083 117.285 552.213C118.155 551.342 162.535 640.538 162.535 640.538C162.535 640.538 156.009 673.171 138.605 682.743C121.201 692.315 121.418 699.93 119.243 706.456C117.067 712.983 89.0033 685.789 89.0033 685.789L71.1641 610.081V563.96L77.2555 558.304Z" fill="#D0CDE1"/>
<path id="Vector_69" d="M70.0764 538.072C70.0764 538.072 64.6376 536.984 58.9813 541.77C53.325 546.556 26.7837 564.396 28.0891 566.136C29.3944 567.876 41.1421 592.677 43.7527 602.685C46.3634 612.692 50.2793 613.997 50.2793 613.997C50.2793 613.997 59.4164 620.524 58.1111 625.31C56.8058 630.096 51.1495 695.361 58.9813 709.719C66.8131 724.078 65.5078 736.696 63.3323 740.177C61.1568 743.657 84.2171 730.169 84.2171 730.169C84.2171 730.169 118.59 702.323 121.201 694.056C122.889 688.373 124.054 682.547 124.682 676.652C124.682 676.652 102.491 588.761 95.5298 583.975C88.5682 579.189 70.0764 538.072 70.0764 538.072Z" fill="#575A89"/>
<path id="Vector_70" d="M117.876 538.416C117.876 538.416 128.598 531.763 130.773 533.503C132.949 535.244 153.398 535.244 153.833 536.984C154.269 538.725 155.139 580.494 169.932 591.372C184.726 602.249 175.153 624.004 175.153 624.004L186.031 641.408C186.031 641.408 126.858 698.402 130.773 678.827C130.991 677.739 130.773 677.522 130.773 677.522C130.773 677.522 107.713 578.754 110.758 573.533C113.804 568.311 119.338 544.634 117.876 538.416Z" fill="#575A89"/>
<path id="Vector_71" d="M209.091 578.319L149.917 598.769C149.917 598.769 91.1788 612.692 100.316 628.791C109.453 644.889 148.177 617.478 148.177 617.478L226.977 608.649C226.977 608.649 258.258 582.235 209.091 578.319Z" fill="#FFB8B8"/>
<path id="Vector_72" d="M93.7894 541.77C111.572 541.77 125.987 527.355 125.987 509.573C125.987 491.791 111.572 477.375 93.7894 477.375C76.0072 477.375 61.5919 491.791 61.5919 509.573C61.5919 527.355 76.0072 541.77 93.7894 541.77Z" fill="#FFB8B8"/>
<path id="Vector_73" d="M68.1484 477.574L62.1926 475.408C62.1926 475.408 74.6457 462.955 91.9719 464.038L87.0988 459.165C87.0988 459.165 99.0105 454.834 109.839 466.204C115.532 472.181 122.118 479.207 126.224 487.121H132.602L129.94 492.445L139.257 497.769L129.694 496.813C130.6 501.41 130.288 506.163 128.79 510.602L126.624 516.558C126.624 516.558 117.961 499.232 117.961 497.066V502.48C117.961 502.48 112.005 497.607 112.005 494.359L108.756 498.149L107.132 492.193L87.0988 498.149L90.3474 493.276L77.8943 494.9L82.7674 488.944C82.7674 488.944 68.69 495.983 68.1484 501.939C67.6068 507.895 60.5684 515.475 60.5684 515.475L57.3197 510.06C57.3197 510.06 52.4467 485.696 68.1484 477.574Z" fill="#2F2E41"/>
<path id="Vector_74" d="M122.397 511.32C122.397 511.32 123.455 518.666 118.376 523.01C116.755 524.373 114.766 525.223 112.662 525.453C110.557 525.683 108.431 525.283 106.554 524.302C104.871 523.42 103.374 522.22 102.146 520.769C101.597 520.131 101.09 519.457 100.63 518.752C99.9624 517.726 99.3736 516.651 98.869 515.536C98.5511 514.841 98.2474 514.098 97.958 513.307C97.9023 513.155 97.8507 513.006 97.801 512.858C95.1633 505.018 100.294 502.731 105.003 502.183C105.991 502.072 106.985 502.021 107.979 502.033C109.147 502.038 110.312 502.121 111.469 502.279C111.469 502.279 111.566 502.28 111.739 502.287C112.637 502.329 113.53 502.428 114.415 502.584C118.053 503.223 123.621 505.202 122.397 511.32Z" fill="#65EBF3"/>
<path id="Vector_75" d="M90.0102 513.307C87.6914 519.672 84.3523 522.791 81.4136 524.302C79.537 525.283 77.4113 525.683 75.3065 525.453C73.2017 525.223 71.2128 524.373 69.5923 523.01C69.2773 522.741 68.9788 522.453 68.6982 522.148C68.1223 521.525 67.6218 520.836 67.207 520.096C66.6821 519.154 66.2785 518.15 66.0059 517.107C65.7062 515.962 65.5339 514.789 65.4922 513.607C65.456 512.843 65.4822 512.078 65.5707 511.32C64.4252 505.592 69.2317 503.493 72.835 502.724C73.877 502.503 74.934 502.361 75.9972 502.298C76.3161 502.28 76.4989 502.279 76.4989 502.279C78.3943 502.023 80.3112 501.966 82.2184 502.109C87.1947 502.51 93.1545 504.676 90.0102 513.307Z" fill="#65EBF3"/>
<path id="Vector_76" opacity="0.2" d="M75.9972 502.298L66.0059 517.107C65.7062 515.962 65.534 514.789 65.4922 513.607L72.835 502.724C73.877 502.503 74.934 502.361 75.9972 502.298Z" fill="white"/>
<path id="Vector_77" opacity="0.2" d="M82.2184 502.109L68.6982 522.148C68.1223 521.525 67.6218 520.836 67.207 520.096L79.387 502.044C80.3313 502.014 81.2764 502.036 82.2184 502.109Z" fill="white"/>
<path id="Vector_78" opacity="0.2" d="M107.979 502.033L98.869 515.536C98.5511 514.841 98.2474 514.098 97.958 513.307C97.9023 513.155 97.8507 513.006 97.801 512.858L105.003 502.183C105.991 502.071 106.985 502.021 107.979 502.033Z" fill="white"/>
<path id="Vector_79" opacity="0.2" d="M114.415 502.584L102.146 520.769C101.597 520.131 101.09 519.457 100.63 518.752L111.739 502.287C112.637 502.329 113.53 502.428 114.415 502.584Z" fill="white"/>
<path id="Vector_80" d="M124.782 510.624H122.508C123.514 502.374 111.469 502.279 111.469 502.279C109.56 502.022 107.628 501.966 105.707 502.113V502.08H82.1618V502.105C80.2732 501.968 78.3755 502.026 76.499 502.279C76.499 502.279 64.4539 502.374 65.4602 510.624H63.2858V512.81H65.48C65.458 515.184 65.9294 519.878 69.5923 523.01C71.2128 524.373 73.2017 525.223 75.3065 525.453C77.4113 525.683 79.537 525.283 81.4137 524.302C84.3524 522.791 87.6914 519.672 90.0102 513.307C90.7144 511.606 90.9898 509.759 90.8122 507.927C92.9255 507.821 95.0427 507.821 97.156 507.927C96.9784 509.759 97.2538 511.606 97.958 513.307C100.277 519.672 103.616 522.791 106.555 524.302C108.431 525.283 110.557 525.683 112.662 525.453C114.766 525.223 116.755 524.373 118.376 523.01C122.039 519.878 122.51 515.184 122.488 512.81H124.782V510.624ZM88.9631 513.347C86.7566 519.404 83.5377 522.238 80.7768 523.545C79.1299 524.331 77.2946 524.635 75.4823 524.424C73.6699 524.212 71.9541 523.494 70.5321 522.35C67.047 519.517 66.5831 515.162 66.596 512.943C66.602 512.061 66.5622 511.181 66.5275 510.299C66.2523 503.374 76.644 503.292 76.644 503.292C76.644 503.292 93.5837 500.666 88.9631 513.347ZM97.2476 507.43C95.0752 507.261 92.893 507.261 90.7206 507.43C90.1755 504.997 88.3385 503.626 86.1569 502.875H101.811C99.6297 503.626 97.7926 504.997 97.2476 507.43ZM121.548 510.267C121.512 511.157 121.473 512.046 121.478 512.935C121.492 515.175 121.023 519.57 117.507 522.429C116.072 523.583 114.342 524.308 112.513 524.522C110.685 524.736 108.833 524.429 107.171 523.638C104.384 522.319 101.133 519.46 98.9048 513.343C94.2424 500.544 111.338 503.196 111.338 503.196C111.338 503.196 121.825 503.277 121.548 510.267Z" fill="#3F3D56"/>
</g>
</g>
<defs>
<linearGradient id="paint0_linear" x1="737" y1="500" x2="623.5" y2="834.5" gradientUnits="userSpaceOnUse">
<stop stop-color="#93FE82"/>
<stop offset="1" stop-color="#117CFB" stop-opacity="0"/>
</linearGradient>
<linearGradient id="paint1_linear" x1="401.074" y1="484.609" x2="540.5" y2="855" gradientUnits="userSpaceOnUse">
<stop stop-color="#93FE82"/>
<stop offset="1" stop-color="#117CFB" stop-opacity="0"/>
</linearGradient>
<clipPath id="clip0">
<rect width="1151.56" height="842.242" fill="white"/>
</clipPath>
</defs>
</svg>
