<svg width="185" height="489" viewBox="0 0 185 489" fill="none" xmlns="http://www.w3.org/2000/svg">
<g id="girl">
<path id="Vector" d="M105 26C111.627 26 117 20.8513 117 14.5C117 8.14873 111.627 3 105 3C98.3726 3 93 8.14873 93 14.5C93 20.8513 98.3726 26 105 26Z" fill="#2F2E41"/>
<path id="Vector_2" d="M93.6318 19.1027C92.3641 17.4448 91.5539 15.4905 91.2803 13.4309C91.0066 11.3713 91.279 9.27684 92.0707 7.35228C92.8625 5.42772 94.1465 3.73893 95.7973 2.45102C97.4481 1.1631 99.4091 0.320139 101.489 0.00453796C99.8011 -0.0412946 98.1224 0.260471 96.5594 0.890587C94.9965 1.5207 93.5837 2.46536 92.411 3.66435C91.2383 4.86334 90.3315 6.29038 89.7483 7.85452C89.1651 9.41866 88.9183 11.0856 89.0237 12.7491C89.1291 14.4126 89.5843 16.0362 90.3604 17.5164C91.1364 18.9966 92.2164 20.3009 93.5312 21.3463C94.8461 22.3917 96.3671 23.1552 97.9974 23.5881C99.6276 24.0211 101.331 24.1139 103 23.8609C101.177 23.8144 99.3873 23.3624 97.7653 22.5386C96.1433 21.7147 94.7304 20.5403 93.6318 19.1027V19.1027Z" fill="#2F2E41"/>
<path id="Vector_3" d="M93 91C112.33 91 128 75.5538 128 56.5C128 37.4462 112.33 22 93 22C73.67 22 58 37.4462 58 56.5C58 75.5538 73.67 91 93 91Z" fill="#2F2E41"/>
<path id="Vector_4" d="M60.3961 43.3031C64.2076 35.09 71.0944 28.6636 79.6031 25.3802C88.1118 22.0969 97.5765 22.2135 106 25.7053C105.645 25.5294 105.292 25.3505 104.928 25.1852C100.724 23.2731 96.1812 22.1994 91.5583 22.0252C86.9353 21.8511 82.323 22.58 77.9848 24.1704C73.6466 25.7607 69.6675 28.1814 66.2749 31.294C62.8822 34.4066 60.1425 38.1501 58.2122 42.3109C56.2819 46.4716 55.1988 50.9679 55.0249 55.5429C54.851 60.118 55.5895 64.6821 57.1984 68.9746C58.8074 73.2671 61.2551 77.2039 64.4018 80.56C67.5485 83.916 71.3325 86.6257 75.5377 88.5342C75.9016 88.6995 76.2689 88.8479 76.6353 89C68.4688 84.9541 62.2103 77.9265 59.1804 69.4005C56.1506 60.8745 56.5865 51.5171 60.3961 43.3031Z" fill="#2F2E41"/>
<path id="Vector_5" d="M137 203.2L125 212L119 194.4L132.5 190L137 203.2Z" fill="#FFB8B8"/>
<path id="Vector_6" d="M130 230.394L153.783 351.949L185 442.749L134.459 453L85.4055 271.399L83.9183 445.678L20 447.142L34.8647 343.161L42.2976 226L130 230.394Z" fill="#2F2E41"/>
<path id="Vector_7" d="M54.6596 443.454V466.721L53.1844 479.808C53.1844 479.808 50.2341 491.442 67.9362 488.533C85.6383 485.625 76.7872 472.537 76.7872 472.537L70.8865 460.904L67.9362 442L54.6596 443.454Z" fill="#2F2E41"/>
<path id="Vector_8" d="M166.008 441L170.382 464.03L174.333 476.721C174.333 476.721 179.502 487.709 161.061 487.996C142.619 488.283 149.107 473.745 149.107 473.745L152.885 461.175L152.314 441.935L166.008 441Z" fill="#2F2E41"/>
<path id="Vector_9" d="M93 89C105.15 89 115 79.1503 115 67C115 54.8497 105.15 45 93 45C80.8497 45 71 54.8497 71 67C71 79.1503 80.8497 89 93 89Z" fill="#FFB8B8"/>
<path id="Vector_10" d="M79.5262 79.4838C79.5262 79.4838 82.5239 103.226 70.533 109.161C58.5422 115.097 93.016 124 93.016 124L114 100.258C114 100.258 103.508 86.9032 106.506 78L79.5262 79.4838Z" fill="#FFB8B8"/>
<path id="Vector_11" d="M110.391 96C110.391 96 107.435 110.617 89.6957 110.617C71.9565 110.617 76.3913 103.309 76.3913 103.309L52.7392 115.002L55.6957 182.241L35 231.939C35 231.939 46.8261 229.016 61.6087 236.324C76.3913 243.633 104.478 237.786 104.478 237.786C104.478 237.786 116.304 236.324 123.696 239.248C131.087 242.171 132.565 233.401 132.565 233.401L123.696 191.011L137 144.236L134.043 103.309L110.391 96Z" fill="#44B9EC"/>
<path id="Vector_12" d="M25.9388 242L21.585 261.283C21.585 261.283 5.62119 289.465 17.2312 290.949C28.8412 292.432 31.7437 261.283 31.7437 261.283L39 242H25.9388Z" fill="#FFB8B8"/>
<path id="Vector_13" d="M123 107.907L130.214 102L134.731 103.506C134.731 103.506 142.063 102.039 149.396 113.776C156.728 125.512 188.989 165.122 184.59 169.523C180.19 173.924 144.996 201.798 144.996 201.798C144.996 201.798 146.463 206.199 144.996 207.666C143.53 209.133 134.731 212.067 134.731 210.6C134.731 209.133 124.773 190.439 124.773 190.439C124.773 190.439 131.799 181.259 133.265 182.726C135.126 184.315 137.085 185.785 139.131 187.128L150.862 175.391C150.862 175.391 149.396 169.523 153.795 170.99C158.194 172.457 155.261 162.188 155.261 162.188L128.866 137.248L123 107.907Z" fill="#44B9EC"/>
<path id="Vector_14" d="M60 114.935L56.029 113C56.029 113 46.7235 114.935 43.7732 120.805C40.8229 126.674 33.4471 186.837 33.4471 186.837L27.5465 226.457C27.5465 226.457 23.121 226.457 23.121 230.859C23.121 235.261 17.2204 247 21.6458 247C26.0713 247 43.7732 247 46.7236 244.065C49.6739 241.13 55.5745 229.391 54.0994 227.924C52.6242 226.457 49.6738 226.457 49.6738 226.457L58.5248 185.37L60 114.935Z" fill="#44B9EC"/>
<path id="Vector_15" d="M72 44V68H77.7338L85.0305 60.4209L84.0531 68H109.397L107.834 60.4209L110.961 68H115V44H72Z" fill="#2F2E41"/>
<path id="Vector_16" d="M115 60H118.2C120.004 60 121.733 60.6993 123.008 61.944C124.284 63.1888 125 64.877 125 66.6374V67.3626C125 69.123 124.284 70.8112 123.008 72.056C121.733 73.3007 120.004 74 118.2 74H115V60Z" fill="#44B9EC"/>
<path id="Vector_17" d="M114 58H117C117.796 58 118.559 58.2877 119.121 58.7999C119.684 59.3121 120 60.0067 120 60.731V73.269C120 73.9933 119.684 74.6879 119.121 75.2001C118.559 75.7123 117.796 76 117 76H114V58Z" fill="#44B9EC"/>
<path id="Vector_18" d="M71 74H67.7996C66.9066 74 66.0225 73.8283 65.1975 73.4948C64.3725 73.1612 63.623 72.6723 62.9916 72.056C62.3602 71.4396 61.8593 70.7079 61.5176 69.9026C61.1759 69.0973 61 68.2342 61 67.3626V66.6374C61 65.7658 61.1759 64.9027 61.5176 64.0974C61.8593 63.2921 62.3602 62.5604 62.9916 61.944C63.623 61.3277 64.3725 60.8388 65.1975 60.5052C66.0225 60.1717 66.9066 60 67.7996 60H71V74Z" fill="#44B9EC"/>
<path id="Vector_19" d="M71 76H68.5C67.837 76 67.201 75.7123 66.7322 75.2001C66.2634 74.6879 66 73.9933 66 73.269V60.731C66 60.3724 66.0647 60.0173 66.1903 59.6859C66.3159 59.3546 66.5001 59.0535 66.7322 58.7999C66.9644 58.5463 67.2399 58.3451 67.5433 58.2079C67.8466 58.0706 68.1717 58 68.5 58H71V76Z" fill="#44B9EC"/>
<path id="Vector_20" d="M118 61H116.026C116.026 47.1902 105.697 35.9554 93.0005 35.9554C80.3031 35.9554 69.9739 47.1902 69.9739 61H68C68 46.1122 79.215 34 93.0005 34C106.785 34 118 46.1122 118 61Z" fill="#44B9EC"/>
<path id="Vector_21" d="M19.7743 256.159L19.5962 256.269L16.5014 251.513C16.2662 251.152 15.9602 250.839 15.601 250.593C15.2418 250.347 14.8364 250.172 14.4079 250.079C13.9795 249.985 13.5363 249.975 13.1037 250.048C12.6712 250.122 12.2577 250.278 11.887 250.507L1.55236 256.899C1.1816 257.129 0.860762 257.427 0.608245 257.777C0.355728 258.127 0.176427 258.522 0.0805916 258.94C-0.0152441 259.358 -0.0257049 259.79 0.0497314 260.212C0.125168 260.633 0.285079 261.036 0.520303 261.398L17.4985 287.487C17.7338 287.848 18.0397 288.161 18.3989 288.407C18.7581 288.653 19.1635 288.828 19.592 288.921C20.0205 289.015 20.4637 289.025 20.8963 288.952C21.3288 288.878 21.7422 288.722 22.113 288.493L32.4476 282.101C33.1964 281.638 33.7258 280.903 33.9194 280.06C34.1129 279.216 33.9548 278.332 33.4797 277.602L21.7992 259.654L21.9772 259.544L19.7743 256.159Z" fill="#3F3D56"/>
<path id="Vector_22" d="M15.836 252.12L32.6154 277.932C32.9666 278.472 33.0835 279.126 32.9404 279.751C32.7973 280.375 32.406 280.918 31.8526 281.261L21.5748 287.625C21.0214 287.967 20.3511 288.081 19.7114 287.942C19.0718 287.802 18.5152 287.42 18.164 286.88L1.38456 261.068C1.03343 260.528 0.916533 259.874 1.0596 259.249C1.20266 258.625 1.59396 258.082 2.14742 257.739L3.3942 256.967C3.42845 257.152 3.50873 257.326 3.62796 257.473C3.7472 257.621 3.90178 257.738 4.07804 257.813C4.2543 257.889 4.44684 257.921 4.63878 257.906C4.83073 257.892 5.01616 257.832 5.17878 257.732L11.0387 254.103C11.2012 254.003 11.3358 253.864 11.4307 253.701C11.5256 253.538 11.5779 253.354 11.583 253.166C11.5881 252.978 11.5458 252.792 11.4598 252.624C11.3739 252.456 11.247 252.311 11.0902 252.202L12.4252 251.375C12.9786 251.033 13.6489 250.919 14.2886 251.058C14.9282 251.198 15.4848 251.58 15.836 252.12Z" fill="#44B9EC"/>
</g>
</svg>
